<?xml version="1.0" encoding="UTF-8"?>
<svg width="167px" height="162px" viewBox="0 0 167 162" version="1.1" xmlns="http://www.w3.org/2000/svg" xmlns:xlink="http://www.w3.org/1999/xlink">
    <!-- Generator: Sketch 41.2 (35397) - http://www.bohemiancoding.com/sketch -->
    <title>astronaut (1)</title>
    <desc>Created with Sketch.</desc>
    <defs>
        <ellipse id="path-1" cx="83.5" cy="80.9583333" rx="83.1605166" ry="80.0630342"></ellipse>
    </defs>
    <g id="Home-Page" stroke="none" stroke-width="1" fill="none" fill-rule="evenodd">
        <g id="Desktop" transform="translate(-877.000000, -2450.000000)">
            <g id="price-box-copy-2" transform="translate(796.000000, 2417.000000)">
                <g id="astronaut-(1)" transform="translate(81.000000, 33.000000)">
                    <mask id="mask-2" fill="white">
                        <use xlink:href="#path-1"></use>
                    </mask>
                    <use id="Mask" fill="#D8D8D8" xlink:href="#path-1"></use>
                    <g mask="url(#mask-2)" id="Layer_1">
                        <g transform="translate(21.000000, 20.000000)">
                            <g>
                                <g id="Group" fill="#FF530D">
                                    <path d="M111.3479,104.385498 C110.322998,103.873047 109.070801,104.289551 108.556152,105.31665 C108.039551,106.34375 108.456055,107.595947 109.483154,108.112549 C109.595703,108.168701 120.833252,113.931396 120.833252,122.916748 C120.833252,124.06665 121.766602,125 122.916504,125 C124.066406,125 124.999756,124.06665 124.999756,122.916748 C125,111.345947 111.90625,104.664551 111.3479,104.385498 Z" id="Shape"></path>
                                    <path d="M13.6520996,104.385498 C13.09375,104.664551 0,111.345947 0,122.916748 C0,124.06665 0.933349609,125 2.08325195,125 C3.2331543,125 4.16650391,124.06665 4.16650391,122.916748 C4.16650391,113.931396 15.4040527,108.168945 15.5166016,108.112549 C16.5437012,107.595947 16.9604492,106.34375 16.4436035,105.31665 C15.9291992,104.289551 14.6811523,103.875 13.6520996,104.385498 Z" id="Shape"></path>
                                    <path d="M28.385498,56.25 C29.5354004,56.25 30.5458984,55.3354492 30.5458984,54.1833496 C30.5458984,53.0334473 29.6896973,52.1186523 28.5395508,52.1186523 C28.1520996,51.8852539 27.083252,49.9645996 27.083252,45.833252 C27.083252,44.1040039 29.6582031,37.0083008 31.03125,34.2644043 C35.2104492,25.9018555 41.3188477,24.9997559 43.75,24.9997559 C44.2270508,24.9997559 44.447998,25.1601562 44.614502,25.3330078 C45.2519531,25.9892578 45.5019531,27.3996582 45.5686035,28.3933105 C37.2124023,37.3703613 33.333252,53.1057129 33.333252,68.7495117 C33.333252,71.0766602 33.4624023,73.2641602 33.7165527,75.2453613 C33.8623047,76.3891602 34.9104004,77.2016602 36.0478516,77.0473633 C37.1894531,76.9016113 37.9958496,75.857666 37.8479004,74.7160645 C37.6186523,72.9077148 37.5,70.9013672 37.5,68.7495117 C37.5,46.9724121 45.229248,24.9995117 62.5,24.9995117 C79.770752,24.9995117 87.5,46.9724121 87.5,68.7495117 C87.5,70.9953613 87.3728027,73.0744629 87.1228027,74.9287109 C86.9707031,76.0703125 87.770752,77.1184082 88.9104004,77.2724609 C89.0063477,77.2849121 89.1000977,77.2912598 89.1916504,77.2912598 C90.21875,77.2912598 91.1125488,76.5307617 91.2541504,75.4851074 C91.5270996,73.4475098 91.666748,71.1809082 91.666748,68.7497559 C91.666748,53.1081543 87.7875977,37.3725586 79.4333496,28.3955078 C79.4980469,27.3955078 79.75,25.9892578 80.385498,25.3330078 C80.5522461,25.1601562 80.7729492,24.9997559 81.25,24.9997559 C83.6811523,24.9997559 89.7895508,25.9018555 93.96875,34.2644043 C95.3415527,37.0080566 97.916748,44.1040039 97.916748,45.833252 C97.916748,49.7895508 96.9814453,51.7270508 96.5793457,52.0854492 C95.4855957,52.1501465 94.6188965,53.0563965 94.6188965,54.166748 C94.6188965,55.3166504 95.5522461,56.25 96.7021484,56.25 C100.020996,56.25 102.083496,52.2583008 102.083496,45.833252 C102.083496,42.8249512 98.7875977,34.5854492 97.697998,32.4020996 C92.4770508,21.9604492 84.4562988,20.833252 81.25,20.833252 C79.7333984,20.833252 78.3937988,21.3916016 77.3791504,22.4477539 C76.6228027,23.2331543 76.1479492,24.2102051 75.8312988,25.177002 C72.09375,22.4228516 67.6645508,20.833252 62.5,20.833252 C57.3354492,20.833252 52.90625,22.4228516 49.1687012,25.177002 C48.8520508,24.2104492 48.3769531,23.2331543 47.6208496,22.4477539 C46.6062012,21.3916016 45.2666016,20.833252 43.75,20.833252 C40.5437012,20.833252 32.5229492,21.9604492 27.302002,32.4020996 C26.2124023,34.5854492 22.9165039,42.8249512 22.9165039,45.833252 C22.916748,52.1625977 25.0625,56.25 28.385498,56.25 Z" id="Shape"></path>
                                    <path d="M54.166748,81.25 C57.3208008,81.25 60.4980469,80.1875 62.5,78.1186523 C64.5021973,80.1875 67.6791992,81.25 70.833252,81.25 C71.9831543,81.25 72.9165039,80.3166504 72.9165039,79.166748 C72.9165039,78.0168457 71.9831543,77.0834961 70.833252,77.0834961 C69.1269531,77.0834961 66.25,76.5187988 65.1020508,74.6689453 C68.4521484,73.8647461 70.833252,71.5668945 70.833252,68.7502441 C70.833252,65.2460938 67.1728516,62.5002441 62.5,62.5002441 C57.8271484,62.5002441 54.166748,65.2460938 54.166748,68.7502441 C54.166748,71.5668945 56.5480957,73.8647461 59.8979492,74.6689453 C58.75,76.519043 55.8730469,77.0834961 54.166748,77.0834961 C53.0168457,77.0834961 52.0834961,78.0168457 52.0834961,79.166748 C52.0834961,80.3166504 53.0166016,81.25 54.166748,81.25 Z M58.333252,68.75 C58.333252,67.9208984 59.9958496,66.666748 62.5,66.666748 C65.0437012,66.666748 66.666748,67.9001465 66.666748,68.75 C66.666748,69.6000977 65.0437012,70.833252 62.5,70.833252 C59.9958496,70.833252 58.333252,69.5791016 58.333252,68.75 Z" id="Shape"></path>
                                    <path d="M75,50 C75,47.7021484 73.1313477,45.833252 70.833252,45.833252 C68.5354004,45.833252 66.6665039,47.7019043 66.6665039,50 C66.6665039,52.2978516 68.5351562,54.166748 70.833252,54.166748 C73.1313477,54.166748 75,52.2978516 75,50 Z" id="Shape"></path>
                                    <path d="M62.5,0 C40.0063477,0 20.677002,13.7854004 12.5,33.3479004 L12.5,12.1166992 C14.9208984,11.2521973 16.666748,8.96264648 16.666748,6.25 C16.666748,2.80419922 13.8625488,0 10.416748,0 C6.97094727,0 4.16674805,2.80419922 4.16674805,6.25 C4.16674805,8.96240234 5.91259766,11.2521973 8.33349609,12.114502 L8.33349609,54.1665039 C8.33349609,67.2978516 13.0314941,79.3476563 20.8334961,88.7353516 L20.8334961,105.179199 C20.8334961,105.820801 21.1313477,106.429199 21.6376953,106.822998 C33.4335938,115.989746 47.5627441,120.833496 62.5002441,120.833496 C77.4377441,120.833496 91.5690918,115.989746 103.362793,106.822998 C103.869141,106.429199 104.166992,105.820801 104.166992,105.179199 L104.166992,88.7353516 C111.968994,79.3479004 116.666992,67.2978516 116.666992,54.1665039 C116.666748,24.3000488 92.3666992,0 62.5,0 Z M10.416748,8.33325195 C9.26879883,8.33325195 8.33349609,7.39794922 8.33349609,6.25 C8.33349609,5.10205078 9.26879883,4.16674805 10.416748,4.16674805 C11.5646973,4.16674805 12.5,5.10205078 12.5,6.25 C12.5,7.39794922 11.5646973,8.33325195 10.416748,8.33325195 Z M100,104.149902 C89.1083984,112.341553 76.1645508,116.666504 62.5,116.666504 C48.8354492,116.666504 35.8937988,112.341553 25,104.149902 L25,93.1977539 C34.7416992,102.560303 47.9562988,108.333252 62.5,108.333252 C77.0437012,108.333252 90.2583008,102.560303 100,93.1977539 L100,104.149902 Z M100.872803,86.177002 C100.602051,86.375 100.375,86.6208496 100.224854,86.9248047 C91.052002,97.4768066 77.5456543,104.166504 62.4997559,104.166504 C34.9309082,104.166504 12.4997559,81.7353516 12.4997559,54.1665039 C12.4997559,26.5976562 34.9309082,4.16650391 62.4997559,4.16650391 C90.0686035,4.16650391 112.499756,26.5976562 112.499756,54.1665039 C112.5,66.3354492 108.125,77.4980469 100.872803,86.177002 Z" id="Shape"></path>
                                    <path d="M58.333252,50 C58.333252,47.7021484 56.4645996,45.833252 54.1665039,45.833252 C51.8686523,45.833252 49.9997559,47.7019043 49.9997559,50 C49.9997559,52.2978516 51.8684082,54.166748 54.1665039,54.166748 C56.4645996,54.166748 58.333252,52.2978516 58.333252,50 Z" id="Shape"></path>
                                    <path d="M98.75,75.416748 C98.5895996,75.5375977 82.4084473,87.5 62.5,87.5 C42.6416016,87.5 26.4104004,75.5354004 26.25,75.416748 C25.3271484,74.7270508 24.0229492,74.9145508 23.333252,75.8354492 C22.6435547,76.7563477 22.8291016,78.0605469 23.75,78.75 C24.4521484,79.2770996 41.2165527,91.666748 62.5,91.666748 C83.7834473,91.666748 100.547852,79.2770996 101.25,78.75 C102.170898,78.0603027 102.356201,76.7541504 101.666748,75.833252 C100.979248,74.9145508 99.6728516,74.7270508 98.75,75.416748 Z" id="Shape"></path>
                                </g>
                            </g>
                        </g>
                    </g>
                </g>
            </g>
        </g>
    </g>
</svg>