<?xml version="1.0" encoding="UTF-8"?>
<svg width="167px" height="161px" viewBox="0 0 167 161" version="1.1" xmlns="http://www.w3.org/2000/svg" xmlns:xlink="http://www.w3.org/1999/xlink">
    <!-- Generator: Sketch 41.2 (35397) - http://www.bohemiancoding.com/sketch -->
    <title>bulldog (1)</title>
    <desc>Created with Sketch.</desc>
    <defs>
        <ellipse id="path-1" cx="83.1605166" cy="80.0630342" rx="83.1605166" ry="80.0630342"></ellipse>
    </defs>
    <g id="Home-Page" stroke="none" stroke-width="1" fill="none" fill-rule="evenodd">
        <g id="Desktop" transform="translate(-158.000000, -2451.000000)">
            <g id="price-box" transform="translate(77.000000, 2417.000000)">
                <g id="bulldog-(1)" transform="translate(81.000000, 34.000000)">
                    <mask id="mask-2" fill="white">
                        <use xlink:href="#path-1"></use>
                    </mask>
                    <use id="Mask" fill="#D8D8D8" xlink:href="#path-1"></use>
                    <g mask="url(#mask-2)" id="Layer_1">
                        <g transform="translate(21.000000, 18.000000)">
                            <g>
                                <g id="Group" fill="#FF530D">
                                    <ellipse id="Oval" cx="84.8467134" cy="25.5222168" rx="3.04445043" ry="2.7590332"></ellipse>
                                    <path d="M90.315194,64.0266113 L90.315194,47.4658203 C90.315194,41.7514648 85.1856142,37.1025391 78.8801185,37.1025391 L71.4299569,37.1025391 C70.7206358,36.3742676 69.4321121,35.6655273 67.1031789,35.6655273 L57.8367457,35.6655273 C55.4867996,35.6655273 54.2085129,36.3745117 53.5140086,37.1025391 L46.1196121,37.1025391 C39.8141164,37.1025391 34.6845366,41.7514648 34.6845366,47.4658203 L34.6845366,64.0266113 C34.6845366,69.7412109 39.8141164,74.3901367 46.1196121,74.3901367 C49.7505388,74.3901367 53.1091056,72.8271484 55.2413793,70.2727051 C57.4100216,71.3132324 59.8798491,71.9057617 62.5,71.9057617 C65.1201509,71.9057617 67.5897091,71.3134766 69.7588901,70.2724609 C71.8873922,72.8288574 75.2341056,74.3901367 78.8806573,74.3901367 C85.1856142,74.3901367 90.315194,69.7412109 90.315194,64.0266113 Z M67.1029095,39.831543 L67.1029095,39.8312988 C67.1963901,39.8312988 67.2817888,39.8334961 67.360722,39.8371582 C67.3089978,39.8908691 67.2510776,39.9482422 67.186153,40.0092773 L65.1274246,41.9440918 C64.4886853,42.5441895 63.6241918,42.8752441 62.6934267,42.8752441 C61.8089978,42.8752441 60.9757543,42.5720215 60.346444,42.0212402 L57.8429418,39.831543 L67.1029095,39.831543 L67.1029095,39.831543 Z M62.4997306,67.7399902 C56.4512392,67.7399902 51.5307112,63.2810059 51.5307112,57.8005371 L51.5307112,54.8681641 C51.5307112,53.0537109 53.1594828,51.5778809 55.1619073,51.5778809 L69.8370151,51.5778809 C71.8394397,51.5778809 73.4684806,53.0537109 73.4684806,54.8681641 L73.4684806,57.8005371 C73.4682112,63.2810059 68.5476832,67.7399902 62.4997306,67.7399902 Z M73.4606681,67.8044434 C76.3019935,65.2475586 78.0646552,61.7075195 78.0646552,57.8005371 L78.0646552,54.8681641 C78.0646552,51.6010742 75.7327586,48.8203125 72.4989224,47.8149414 L72.4989224,47.1008301 C72.4989224,45.9501953 71.470097,45.0180664 70.2007004,45.0180664 C68.9310345,45.0180664 67.9022091,45.9504395 67.9022091,47.1008301 L67.9022091,47.4121094 L57.0969828,47.4121094 L57.0969828,47.1008301 C57.0969828,45.9501953 56.0681573,45.0180664 54.7984914,45.0180664 C53.5288254,45.0180664 52.5002694,45.9504395 52.5002694,47.1008301 L52.5002694,47.8144531 C49.2658944,48.8195801 46.9339978,51.6008301 46.9339978,54.8679199 L46.9339978,57.800293 C46.9339978,61.7070313 48.6966595,65.2470703 51.5379849,67.8039551 C50.2607759,69.3061523 48.2699353,70.2243652 46.1190733,70.2243652 C42.3483297,70.2243652 39.2807112,67.4438477 39.2807112,64.0266113 L39.2807112,47.4658203 C39.2807112,44.0483398 42.3485991,41.2683105 46.1190733,41.2683105 L53.2704741,41.2683105 C53.580819,41.7587891 54.0231681,42.2805176 54.6452047,42.824707 L57.1532866,45.0187988 C58.6438578,46.322998 60.6109914,47.0415039 62.6928879,47.0415039 C64.8836207,47.0415039 66.9237608,46.2580566 68.4364224,44.8361816 L70.4938039,42.9020996 C71.1058728,42.3273926 71.5301724,41.7802734 71.8211207,41.2687988 L78.8803879,41.2687988 C82.6511315,41.2687988 85.71875,44.0490723 85.71875,47.4663086 L85.71875,64.0270996 C85.71875,67.4448242 82.6508621,70.2248535 78.8803879,70.2248535 C76.7195582,70.2243652 74.735722,69.3081055 73.4606681,67.8044434 Z" id="Shape"></path>
                                    <ellipse id="Oval" cx="40.1530172" cy="25.5219727" rx="3.04445043" ry="2.7590332"></ellipse>
                                    <path d="M118.074892,110.768066 C118.999461,108.437256 119.480065,105.960693 119.480065,103.467773 C119.480065,94.6948242 113.651131,86.8835449 104.814655,83.5725098 L104.814655,73.1098633 C104.814655,68.7062988 103.997575,64.3952637 102.385506,60.2814941 C105.885506,54.361084 107.730603,47.6953125 107.730603,40.9394531 L107.730603,24.1166992 L109.486261,24.0878906 C114.562769,24.0056152 116.241649,21.9274902 116.790409,20.6958008 C117.338901,19.4643555 117.723599,16.9128418 114.132813,13.6586914 L102.072198,2.72949219 C100.073815,0.918457031 98.1069504,0 96.2265625,0 C94.9302263,0 93.7658944,0.442138672 92.8582974,1.27856445 C92.1543642,1.92797852 91.6438578,2.77807617 91.3251616,3.81640625 C89.6694504,3.44897461 87.9695582,3.26123047 86.2435345,3.26123047 L38.7556573,3.26123047 C37.0293642,3.26123047 35.329472,3.44824219 33.6740302,3.81567383 C33.3553341,2.77758789 32.8448276,1.92797852 32.1411638,1.27880859 C31.2338362,0.442138672 30.0692349,0 28.7728987,0 C26.8925108,0 24.9256466,0.918457031 22.9280711,2.72924805 L10.8671875,13.6589355 C7.27693966,16.9128418 7.66136853,19.4645996 8.20985991,20.6960449 C8.75862069,21.9277344 10.4375,24.0058594 15.5132004,24.0881348 L17.2691272,24.1169434 L17.2691272,40.939209 C17.2691272,47.6953125 19.1142241,54.361084 22.6147629,60.2817383 C21.0024246,64.3955078 20.1858836,68.7060547 20.1858836,73.1096191 L20.1858836,83.5725098 C11.3488685,86.8828125 5.51993534,94.6945801 5.51993534,103.467773 C5.51993534,105.961182 6.0002694,108.4375 6.92510776,110.768066 C3.15436422,111.307373 0.262122845,114.273438 0.262122845,117.840088 L0.262122845,120.625244 C0.262122845,123.037354 2.42753233,124.999756 5.08917026,124.999756 L119.911099,124.999756 C122.573006,124.999756 124.738147,123.037354 124.738147,120.625244 L124.738147,117.840088 C124.737877,114.273438 121.845366,111.307373 118.074892,110.768066 Z M96.1724138,4.16992188 C96.1764547,4.16870117 96.1945043,4.16577148 96.2265625,4.16577148 C96.3219289,4.16577148 97.2028556,4.20800781 98.8216595,5.67504883 L110.882004,16.6044922 C112.374731,17.9570313 112.635237,18.894043 112.527209,19.1359863 C112.419181,19.3779297 111.514009,19.8884277 109.402748,19.9223633 L103.944774,20.0126953 L103.794181,20.0141602 C99.3779634,20.0141602 95.7219828,16.7570801 95.6452047,12.7526855 L95.5301724,6.93969727 C95.4916487,4.94506836 96.0385237,4.23706055 96.1724138,4.16992188 Z M92.9032866,25.5222168 C92.9032866,29.5480957 89.2890625,32.8234863 84.8467134,32.8234863 C80.4040948,32.8234863 76.7898707,29.5480957 76.7898707,25.5222168 C76.7898707,21.4960938 80.4040948,18.220459 84.8467134,18.220459 C89.2887931,18.220459 92.9032866,21.4963379 92.9032866,25.5222168 Z M15.5959052,19.9223633 C13.4851832,19.8881836 12.5797414,19.3776855 12.4722522,19.1359863 C12.3644935,18.894043 12.625,17.9570313 14.1171875,16.6044922 L26.1780711,5.67480469 C27.7960668,4.20825195 28.6775323,4.16577148 28.7728987,4.16577148 C28.8041487,4.16577148 28.8219289,4.16845703 28.8238147,4.16845703 C28.9612069,4.23706055 29.5078125,4.94506836 29.46875,6.93896484 L29.3537177,12.7539062 C29.2766703,16.7575684 25.6209591,20.0146484 21.2047414,20.0146484 L15.5959052,19.9223633 Z M17.1538254,117.840088 L17.1538254,120.625244 C17.1538254,120.695801 17.1619073,120.764404 17.1654095,120.833984 L5.08890086,120.833984 C4.96174569,120.833984 4.85856681,120.740479 4.85856681,120.625244 L4.85856681,117.840088 C4.85856681,116.189209 6.34051724,114.846191 8.16163793,114.846191 L10.4251078,114.846191 C11.2362608,114.846191 11.9873384,114.458496 12.4014009,113.82666 C12.8157328,113.19458 12.8310884,112.411133 12.4428879,111.766113 C10.9210668,109.237305 10.1166487,106.36792 10.1166487,103.467529 C10.1166487,96.9912109 14.0546875,91.1650391 20.1858836,88.1762695 L20.1858836,106.709229 C20.1858836,108.418213 20.450431,110.094238 20.9636315,111.716309 C18.6818427,112.973389 17.1538254,115.248291 17.1538254,117.840088 Z M49.3065733,117.840088 C49.3065733,119.490723 47.8246228,120.834229 46.0032328,120.834229 L21.9806034,120.834229 C21.8537177,120.834229 21.7505388,120.740723 21.7505388,120.625488 L21.7505388,117.840332 C21.7505388,116.189453 23.2324892,114.846436 25.0536099,114.846436 L32.8337823,114.846436 C34.1034483,114.846436 35.1322737,113.914062 35.1322737,112.763672 L35.1322737,86.0288086 C35.1322737,82.4873047 38.3116918,79.605957 42.2195582,79.605957 C46.1274246,79.605957 49.3068427,82.4873047 49.3068427,86.0288086 L49.3068427,117.840088 L49.3065733,117.840088 Z M71.8230065,120.834229 L53.1769935,120.834229 C53.6422414,119.922852 53.903556,118.908447 53.903556,117.840088 L53.903556,86.0288086 C53.903556,80.1904297 48.6621767,75.4401855 42.2195582,75.4401855 C35.7772091,75.4401855 30.5355603,80.1899414 30.5355603,86.0288086 L30.5355603,110.68042 L25.4159483,110.68042 C24.9970366,109.39624 24.7828664,108.06665 24.7828664,106.709717 L24.7828664,73.1096191 C24.7828664,68.8896484 25.6231142,64.767334 27.2804418,60.8571777 C27.5272091,60.2753906 27.4733297,59.6245117 27.1338901,59.0822754 C23.6872306,53.5773926 21.8658405,47.3034668 21.8658405,40.9389648 L21.8658405,24.1640625 C28.4730603,23.8518066 33.8335129,18.8859863 33.950431,12.8276367 L34.0452586,8.03735352 C35.5697737,7.63232422 37.1484375,7.42749023 38.7559267,7.42749023 L86.2443427,7.42749023 C87.8515625,7.42749023 89.4304957,7.63330078 90.9552802,8.03808594 L91.0498384,12.826416 C91.0695043,13.8554688 91.2435345,14.8520508 91.5463362,15.8007813 C89.6015625,14.6960449 87.3060345,14.0549316 84.8469828,14.0549316 C77.8698815,14.0549316 72.1934267,19.1992188 72.1934267,25.5224609 C72.1934267,31.845459 77.8698815,36.989502 84.8469828,36.989502 C91.8240841,36.989502 97.5002694,31.8452148 97.5002694,25.5224609 C97.5002694,24.4348145 97.3286638,23.3835449 97.0150862,22.385498 C98.8092672,23.4179688 100.899515,24.0578613 103.13389,24.1638184 L103.13389,40.9389648 C103.13389,47.3032227 101.3125,53.5769043 97.8663793,59.081543 C97.5272091,59.623291 97.4735991,60.2746582 97.7198276,60.8564453 C99.3774246,64.767334 100.217672,68.8896484 100.217672,73.1096191 L100.217672,106.709473 C100.217672,108.067139 100.002155,109.396484 99.5829741,110.680176 L94.4644397,110.680176 L94.4644397,86.0288086 C94.4644397,80.1904297 89.2230603,75.4401855 82.7804418,75.4401855 C76.3378233,75.4401855 71.0961746,80.1899414 71.0961746,86.0288086 L71.0961746,117.840088 C71.096444,118.908447 71.3577586,119.922852 71.8230065,120.834229 Z M103.249192,120.625488 C103.249192,120.740723 103.146013,120.834229 103.019127,120.834229 L78.9962284,120.834229 C77.1751078,120.834229 75.6931573,119.490967 75.6931573,117.840088 L75.6931573,86.0288086 C75.6931573,82.4873047 78.8725754,79.605957 82.7804418,79.605957 C86.6883082,79.605957 89.8677263,82.4873047 89.8677263,86.0288086 L89.8677263,112.763428 C89.8677263,113.914062 90.8965517,114.846191 92.1659483,114.846191 L99.9461207,114.846191 C101.767241,114.846191 103.249192,116.189209 103.249192,117.840088 L103.249192,120.625488 Z M119.91083,120.834229 L107.834321,120.834229 C107.838093,120.764404 107.845905,120.696045 107.845905,120.625488 L107.845905,117.840332 C107.845905,115.248291 106.317888,112.973633 104.03556,111.716553 C104.54903,110.095215 104.814386,108.419678 104.814386,106.709717 L104.814386,88.177002 C110.945313,91.1657715 114.883082,96.9914551 114.883082,103.468018 C114.883082,106.36792 114.078664,109.237549 112.556843,111.766602 C112.168373,112.411621 112.183998,113.195068 112.59833,113.827148 C113.012662,114.458984 113.763739,114.84668 114.574623,114.84668 L116.838093,114.84668 C118.659213,114.84668 120.141164,116.189697 120.141164,117.840576 L120.141164,120.625488 L120.141433,120.625488 C120.141164,120.740723 120.037985,120.834229 119.91083,120.834229 Z" id="Shape"></path>
                                </g>
                            </g>
                        </g>
                    </g>
                </g>
            </g>
        </g>
    </g>
</svg>