<?xml version="1.0" encoding="UTF-8"?>
<svg width="167px" height="162px" viewBox="0 0 167 162" version="1.1" xmlns="http://www.w3.org/2000/svg" xmlns:xlink="http://www.w3.org/1999/xlink">
    <!-- Generator: Sketch 41.2 (35397) - http://www.bohemiancoding.com/sketch -->
    <title>Capa_1</title>
    <desc>Created with Sketch.</desc>
    <defs>
        <ellipse id="path-1" cx="83.5" cy="80.9583333" rx="83.1605166" ry="80.0630342"></ellipse>
    </defs>
    <g id="Home-Page" stroke="none" stroke-width="1" fill="none" fill-rule="evenodd">
        <g id="Desktop" transform="translate(-517.000000, -2450.000000)">
            <g id="price-box-copy" transform="translate(436.000000, 2417.000000)">
                <g id="Capa_1" transform="translate(81.000000, 33.000000)">
                    <mask id="mask-2" fill="white">
                        <use xlink:href="#path-1"></use>
                    </mask>
                    <use id="Mask" fill="#D8D8D8" xlink:href="#path-1"></use>
                    <g mask="url(#mask-2)" id="XMLID_16_" fill="#FF530D">
                        <g transform="translate(21.000000, 20.000000)">
                            <path d="M37.6429412,27.15625 L32.0611765,27.15625 L32.0611765,21.6415441 L37.6429412,21.6415441 L37.6429412,27.15625 L37.6429412,27.15625 Z M56.0482353,21.6415441 L50.4670588,21.6415441 L50.4670588,27.15625 L56.0482353,27.15625 L56.0482353,21.6415441 Z M121.179412,54.3201593 L109.293824,54.3146446 L109.265588,73.5643382 L105.874412,77.2156863 L109.679118,81.0502451 L114.556471,75.7990196 L114.58,59.8318015 L116.527059,59.8327206 L119.368235,82.6651348 L113.403529,89.8501838 L112.686176,89.848652 L71.9014706,44.8299632 L66.7147059,44.8299632 L66.7147059,50.3446691 L69.6182353,50.3446691 L108.876765,93.6792279 L108.876765,115.152267 C108.876765,117.379902 107.136765,119.192708 104.997941,119.192708 L57.0608824,119.192708 L57.0608824,114.513787 C57.0608824,111.933824 59.0758824,109.835172 61.5526471,109.835172 L80.0382353,109.835172 L80.0382353,107.077819 C80.0382353,100.397365 85.2555882,94.9626225 91.6688235,94.9626225 L91.6688235,89.4479167 C83.2370588,89.4479167 76.2255882,95.9047181 74.9508824,104.320466 L61.5526471,104.320466 C61.3755882,104.320466 61.1997059,104.325368 61.025,104.335172 L62.1567647,87.6571691 L74.7205882,77.3979779 L71.4544118,73.0579044 L57.0414706,84.8272059 L55.5747059,106.448836 C53.26,108.314951 51.7670588,111.236213 51.7670588,114.514093 L51.7670588,119.193015 L21.2097059,119.193015 L21.2097059,114.514093 C21.2097059,111.93413 23.2247059,109.835478 25.7011765,109.835478 L42.0020588,109.835478 L44.9517647,62.6397059 L39.6688235,62.2815564 L37.0414706,104.320772 L25.7014706,104.320772 C20.3055882,104.320772 15.9158824,108.893689 15.9158824,114.514093 L15.9158824,124.707721 L104.998235,124.707721 C110.056176,124.707721 114.171176,120.421262 114.171176,115.152574 L114.171176,95.3667279 L115.820294,95.370098 L124.923235,84.4050245 L121.179412,54.3201593 Z M17.6388235,31.6810662 C16.2394118,31.6810662 14.9044118,31.0042892 13.9758824,29.8241422 L1.55176471,14.033701 C-0.125294118,11.9019608 -0.125294118,8.5625 1.55176471,6.4307598 L1.55176471,6.4307598 L6.44382353,0.212622549 L28.8338235,0.212622549 L33.7261765,6.43045343 C33.95,6.71507353 34.1441176,7.02113971 34.3082353,7.34313725 L53.8017647,7.34313725 C53.9655882,7.02144608 54.1594118,6.71568627 54.3832353,6.43106618 L54.3835294,6.4307598 L59.2752941,0.212928922 L81.6652941,0.212928922 L86.5579412,6.4307598 C88.2352941,8.5625 88.235,11.9022672 86.5579412,14.0340074 L74.1341176,29.8247549 C73.2058824,31.004902 71.8705882,31.6816789 70.4711765,31.6816789 C69.0714706,31.6816789 67.7361765,31.0052083 66.8076471,29.8250613 L65.6479412,28.3507966 L62.5097059,49.3272059 C61.7858824,54.1654412 58.3870588,57.5447304 54.2444118,57.5447304 L33.8658824,57.5447304 C29.7232353,57.5447304 26.3241176,54.1654412 25.6005882,49.3272059 L22.4626471,28.3504902 L21.3029412,29.8247549 C20.3735294,31.0042892 19.0382353,31.6810662 17.6388235,31.6810662 L17.6388235,31.6810662 Z M58.4785294,10.5386029 L70.4705882,25.7806373 L82.4629412,10.5382966 C82.5535294,10.4181985 82.5532353,10.0465686 82.4626471,9.92616422 L79.1594118,5.7276348 L61.7814706,5.7276348 L58.4782353,9.92647059 C58.3879412,10.0471814 58.3882353,10.4185049 58.4785294,10.5386029 Z M33.7261765,14.033701 L26.9641176,22.6283701 L30.8311765,48.4779412 C31.0761765,50.1164216 32.0179412,52.0297181 33.8655882,52.0297181 L41.4079412,52.0297181 L41.4079412,42.6721814 L37.3770588,42.6721814 L37.3770588,37.1574755 L50.7332353,37.1574755 L50.7332353,42.6721814 L46.7020588,42.6721814 L46.7020588,52.0297181 L54.2441176,52.0297181 C56.0914706,52.0297181 57.0332353,50.1161152 57.2782353,48.4776348 L61.1452941,22.6283701 L54.3832353,14.033701 C54.0991176,13.6724877 53.8632353,13.276348 53.6752941,12.8578431 L34.4341176,12.8578431 C34.2464706,13.2766544 34.0105882,13.6724877 33.7261765,14.033701 Z M17.6391176,25.7803309 L29.6317647,10.5379902 C29.7220588,10.4178922 29.7220588,10.0462623 29.6317647,9.92585784 L26.3279412,5.72732843 L8.95,5.72732843 L5.64705882,9.92585784 C5.55647059,10.0459559 5.55647059,10.4178922 5.64705882,10.5382966 L17.6391176,25.7803309 Z"></path>
                        </g>
                    </g>
                </g>
            </g>
        </g>
    </g>
</svg>